<svg version="1.1" id="Layer_1" xmlns="http://www.w3.org/2000/svg" xmlns:xlink="http://www.w3.org/1999/xlink" x="0px" y="0px"
	 width="100%" viewBox="0 0 1664 928" enable-background="new 0 0 1664 928" xml:space="preserve">
<path fill="none" opacity="1.000000" stroke="#000000" stroke-linecap="round" stroke-linejoin="round" stroke-width="5.000000"
	d="
M790.000000,314.500000 
	C787.489746,320.133301 781.838989,321.348389 776.970703,323.431519 
	C768.516846,327.048828 759.388306,328.512024 750.472290,330.366699 
	C731.409119,334.332184 719.827820,346.189178 712.434509,363.471985 
	C705.497864,379.687225 700.854309,396.479370 699.658203,414.010803 
	C698.943604,424.484894 699.620850,434.994873 701.332458,445.527222 
	C705.248596,469.624237 709.887512,493.621490 712.105591,517.990417 
	C712.924744,526.990173 713.627625,535.968140 714.130371,544.992737 
	C714.863892,558.158569 715.232483,571.359131 716.231262,584.482422 
	C717.208618,597.323181 718.231018,610.198303 719.840576,623.020020 
	C721.838806,638.936523 722.289978,655.042908 724.105713,670.987976 
	C725.932251,687.027588 727.549866,703.373840 735.135193,717.929565 
	C744.854797,736.580566 761.347473,746.364380 781.479980,751.085266 
	C799.460327,755.301453 817.596497,757.246277 835.997192,756.436218 
	C846.181885,755.987793 856.272827,754.062012 866.500061,754.022400 
	C869.367371,754.011292 871.521179,752.041687 872.858215,750.385559 
	C880.588501,740.809631 889.950745,733.074463 899.497925,725.497375 
	C899.681396,725.351807 899.840027,725.172852 899.999146,724.999207 
	C909.607239,714.513245 921.786865,706.951904 931.661743,696.655090 
	C941.096069,686.817566 950.020813,676.607605 958.353516,665.886108 
	C960.156677,663.566040 962.017090,662.356140 964.500000,661.500000 
"/>
<path fill="none" opacity="1.000000" stroke="#000000" stroke-linecap="round" stroke-linejoin="round" stroke-width="3.000000"
	d="
M828.500000,328.500000 
	C828.351379,337.666992 828.515137,346.829132 828.120300,356.005188 
	C827.734070,364.981384 828.198792,374.005096 828.539246,382.998505 
	C828.854980,391.338837 829.574829,399.662994 829.983521,408.000793 
	C830.703491,422.687714 831.271057,437.375000 832.906616,452.010437 
	C833.534546,457.629425 833.628967,463.363129 833.808228,469.006104 
	C834.337341,485.662537 835.993774,502.334534 834.897217,518.993225 
	C834.028687,532.188904 832.808716,545.366882 831.176758,558.521912 
	C829.483337,572.171265 827.340881,585.691528 823.951111,598.987549 
	C818.629028,619.862671 811.104126,640.009888 800.859558,658.923950 
	C791.485779,676.230286 780.289429,692.452881 767.505615,707.504761 
	C764.135193,711.473206 760.833313,715.500000 757.500000,719.500000 
"/>
<path fill="none" opacity="1.000000" stroke="#000000" stroke-linecap="round" stroke-linejoin="round" stroke-width="7.000000"
	d="
M981.000000,470.500000 
	C982.940796,463.971771 982.388672,457.140015 983.434692,450.489716 
	C984.655457,442.728577 984.049438,434.829163 984.759033,426.978210 
	C985.594421,417.736237 985.548096,408.305542 984.250488,398.999939 
	C980.975403,375.513275 972.379028,354.151733 956.337769,336.648712 
	C943.883118,323.059113 927.672791,315.090546 909.495911,311.520844 
	C900.416260,309.737732 891.216797,309.981018 882.000854,309.899811 
	C863.331238,309.735413 844.664368,308.562897 826.000854,308.661346 
	C814.515076,308.721924 802.989075,309.226685 791.488464,309.742737 
	C784.573242,310.053070 777.437744,309.120514 770.513611,309.671417 
	C760.261414,310.487091 750.099487,312.394257 740.492615,316.482605 
	C728.664307,321.516418 717.805420,328.176270 709.098755,337.591339 
	C698.889099,348.631897 691.941406,361.813049 687.018066,376.006256 
	C682.866516,387.974487 681.095032,400.441254 681.147705,412.999390 
	C681.196106,424.497803 681.909607,436.014069 682.767273,447.517365 
	C683.298279,454.639618 683.973389,461.806274 684.117310,468.997650 
	C684.314331,478.840393 685.050049,488.696259 686.073853,498.492279 
	C687.274475,509.980377 689.088562,521.466003 688.847839,532.996826 
	C688.586792,545.500793 691.706360,557.583252 692.151672,569.994568 
	C692.666809,584.351257 694.211914,598.677917 695.533386,612.996948 
	C696.918640,628.007263 697.782776,643.062012 699.908936,658.012939 
	C701.083740,666.273987 701.155762,674.685791 702.048462,682.994812 
	C703.000061,691.851196 704.358643,700.663452 705.493103,709.500916 
	C706.690613,718.830261 707.844910,728.165283 708.997375,737.500305 
	C711.050903,754.134644 712.308228,770.917969 717.527466,786.991089 
	C721.524109,799.298950 730.154846,805.913574 742.988953,807.584717 
	C748.834351,808.345825 754.647034,808.483948 760.499878,808.521912 
	C761.840454,808.530579 763.875610,807.769958 763.500000,810.500000 
"/>
<path fill="none" opacity="1.000000" stroke="#000000" stroke-linecap="round" stroke-linejoin="round" stroke-width="5.000000"
	d="
M876.000000,310.500000 
	C875.586670,315.510345 878.332458,318.308075 882.472290,320.551117 
	C891.107788,325.230011 900.614624,326.952942 910.013794,328.934540 
	C920.716797,331.191010 930.999512,334.579956 939.400452,341.618805 
	C946.997070,347.983856 951.116760,357.052429 954.964111,366.015411 
	C960.661255,379.287720 964.485901,393.161072 965.892029,407.510590 
	C967.331787,422.203033 967.075012,436.908569 964.052368,451.510834 
	C960.083862,470.682831 957.334229,490.063110 954.997559,509.499695 
	C953.459656,522.291687 952.370972,535.096252 951.646301,547.980103 
	C951.177917,556.308289 951.291992,564.672363 950.647583,573.011414 
	C949.437317,588.673340 948.653137,604.358643 947.175049,620.016541 
	C946.013123,632.325134 944.208496,644.586243 943.882874,656.996948 
	C943.703125,663.847412 942.579468,670.710754 941.368347,677.476440 
	C940.936646,679.888123 941.599487,681.594543 942.500000,683.500000 
"/>
<path fill="none" opacity="1.000000" stroke="#000000" stroke-linecap="round" stroke-linejoin="round" stroke-width="3.000000"
	d="
M835.500000,351.500000 
	C835.500000,360.833344 835.358826,370.171051 835.649414,379.495331 
	C835.693909,380.923279 835.999390,382.519257 835.958313,383.998840 
	C835.493408,400.735535 836.876465,417.447510 838.743896,433.972443 
	C842.771057,469.609253 842.209656,505.312622 841.723511,540.996216 
	C841.546509,553.990417 839.439270,567.052795 837.241455,580.040833 
	C833.038879,604.875244 825.014832,628.335876 814.395813,650.951111 
	C806.806885,667.113037 797.170532,682.137207 786.552490,696.538696 
	C778.941467,706.861755 771.048950,716.881287 761.500000,725.500000 
"/>
<path fill="none" opacity="1.000000" stroke="#000000" stroke-linecap="round" stroke-linejoin="round" stroke-width="6.000000"
	d="
M781.000000,235.500000 
	C776.974365,231.490967 771.277832,232.353409 766.458069,230.616257 
	C755.784546,226.769226 745.246521,222.710800 738.058594,213.454498 
	C726.124207,198.085953 722.124390,167.396530 740.511108,151.512863 
	C748.124146,144.936264 757.179626,140.990219 766.490051,137.473618 
	C785.517212,130.286896 805.353699,127.280037 825.504700,126.650398 
	C836.478333,126.307518 847.576660,126.851990 858.483215,128.141815 
	C878.087524,130.460236 897.212585,135.061569 914.982300,144.035065 
	C929.653381,151.443771 937.431946,163.405136 938.022705,179.999191 
	C938.954956,206.184845 924.953796,222.942764 901.026917,230.090179 
	C889.043945,233.669724 877.030823,236.040833 864.527466,237.277847 
	C849.333252,238.781097 834.190491,239.078293 819.000549,238.939453 
	C809.270081,238.850525 799.603271,238.064407 789.962158,236.195328 
	C784.254272,235.088776 778.181152,236.212219 773.025391,239.539368 
	C769.634033,241.727905 768.036499,247.260437 769.500000,250.500015 
	C771.070496,253.976410 775.280518,255.526123 779.498169,255.601547 
	C793.011475,255.843155 806.426941,253.682877 820.014465,254.828476 
	C831.778198,255.820328 843.699646,254.845947 855.490356,255.642868 
	C866.358948,256.377502 877.170959,255.149567 887.999817,255.753372 
	C892.389099,255.998108 895.966492,253.660995 897.500000,249.500015 
	C898.666504,246.334854 896.631226,241.150894 893.515015,238.978439 
	C891.725830,237.731049 889.224304,237.623749 888.000000,235.500000 
"/>
<path fill="none" opacity="1.000000" stroke="#000000" stroke-linecap="round" stroke-linejoin="round" stroke-width="4.000000"
	d="
M745.500000,157.500000 
	C749.712769,161.528442 755.370850,161.517365 760.518311,162.392227 
	C779.857422,165.679047 799.458069,165.661148 818.993469,166.631836 
	C835.858337,167.469833 852.690796,166.749893 869.492554,166.249619 
	C883.532227,165.831589 897.703613,164.876328 911.499756,161.499130 
	C912.834717,161.172363 914.166687,160.833344 915.500000,160.500015 
"/>
<path fill="none" opacity="1.000000" stroke="#000000" stroke-linecap="round" stroke-linejoin="round" stroke-width="6.000000"
	d="
M979.500000,648.500000 
	C980.742493,643.493591 985.012695,640.995300 988.546265,638.055603 
	C1000.187073,628.371216 1012.772888,620.617065 1027.963501,617.331299 
	C1036.611694,615.460754 1045.298828,614.939453 1053.994019,613.947205 
	C1062.653687,612.958862 1071.405640,615.499451 1080.013794,613.048401 
	C1081.294800,612.683594 1081.504883,614.535522 1082.613281,614.994141 
	C1071.254395,633.018127 1056.512695,647.206787 1036.984497,655.965515 
	C1023.466858,662.028564 1009.548767,664.962646 994.462097,662.759338 
	C987.502075,661.742737 980.244202,659.826599 972.988586,661.961121 
	C970.386536,662.726501 968.359253,660.575928 965.525940,660.244812 
	C964.980469,664.280518 965.604919,668.666687 965.110168,673.012512 
	C963.837769,684.188293 962.418030,695.351440 961.215088,706.523132 
	C960.245239,715.530151 959.101562,724.517517 957.931213,733.491028 
	C955.659546,750.908447 953.891418,768.434998 949.454346,785.488098 
	C946.040466,798.608826 938.255127,806.062317 922.014404,807.204895 
	C895.355774,809.080322 868.711548,810.256592 842.000183,809.980469 
	C828.665710,809.842529 815.333313,809.500000 802.000000,809.250000 
"/>
<path fill="none" opacity="1.000000" stroke="#000000" stroke-linecap="round" stroke-linejoin="round" stroke-width="5.000000"
	d="
M908.500000,795.500000 
	C895.801636,794.901367 883.158264,793.529846 870.489685,792.648682 
	C850.867554,791.283875 831.197632,789.609314 811.492432,791.935913 
	C807.711853,792.382263 803.789673,791.627625 800.008240,792.070435 
	C789.018799,793.357361 777.966431,793.947449 766.968079,795.225403 
	C760.497314,795.977234 754.071777,797.533203 747.500000,797.500000 
"/>
<path fill="none" opacity="1.000000" stroke="#000000" stroke-linecap="round" stroke-linejoin="round" stroke-width="5.000000"
	d="
M904.000000,552.500000 
	C904.036865,554.734497 904.183655,556.518982 902.161194,558.652771 
	C897.636475,563.426514 895.787842,569.958313 893.592163,576.033325 
	C888.589111,589.875427 885.824341,604.233337 886.048218,618.999268 
	C886.284119,634.555237 890.633118,649.208923 896.464233,663.514587 
	C899.887085,671.912231 904.330750,679.910034 906.144531,688.971069 
	C906.546326,690.978394 908.347656,693.095215 911.000000,693.500000 
"/>
<path fill="none" opacity="1.000000" stroke="#000000" stroke-linecap="round" stroke-linejoin="round" stroke-width="5.000000"
	d="
M904.000000,557.500000 
	C907.335999,562.311646 907.372925,568.158691 908.951050,573.514404 
	C912.768616,586.469971 916.539001,599.446350 919.947388,612.513733 
	C924.107300,628.462646 924.478760,644.654541 922.601257,661.011597 
	C921.860413,667.466248 920.647949,673.766235 918.955078,679.987793 
	C917.878723,683.943665 916.951599,687.787842 913.130859,690.673279 
	C909.781372,693.202881 910.250061,698.058472 909.538940,702.007019 
	C908.707214,706.625977 907.110962,711.184509 908.000000,716.000000 
"/>
<path fill="none" opacity="1.000000" stroke="#000000" stroke-linecap="round" stroke-linejoin="round" stroke-width="5.000000"
	d="
M937.000000,342.500000 
	C931.476013,346.481659 924.900574,347.285248 918.494629,348.470978 
	C901.618591,351.594666 884.541199,351.002930 867.500000,351.000885 
	C840.500000,350.997620 813.496460,351.256714 786.501526,350.886993 
	C773.825806,350.713409 761.126404,349.698639 748.520996,348.309326 
	C743.872803,347.796997 738.943848,347.489685 734.514709,345.467834 
	C733.442139,344.978210 731.705383,345.358551 731.500000,343.500000 
"/>
<path fill="none" opacity="1.000000" stroke="#000000" stroke-linecap="round" stroke-linejoin="round" stroke-width="5.000000"
	d="
M588.000000,382.500000 
	C585.551025,387.096863 588.014771,391.582367 588.625671,395.982544 
	C590.729309,411.133759 595.151306,425.501495 604.472412,438.020508 
	C610.577454,446.219971 618.166748,452.741760 626.502441,458.496429 
	C630.154541,461.017639 634.064331,463.228394 637.425781,466.087280 
	C640.043335,468.313477 642.760010,469.152222 646.000000,469.000000 
"/>
<path fill="none" opacity="1.000000" stroke="#000000" stroke-linecap="round" stroke-linejoin="round" stroke-width="6.000000"
	d="
M654.500000,301.500000 
	C655.411926,313.322845 656.065979,325.147156 655.022339,337.001953 
	C654.862183,338.821198 654.486145,340.860748 655.092163,342.465179 
	C657.286194,348.273773 655.302673,353.394806 652.985413,358.493378 
	C647.826721,369.843536 644.195496,381.584137 642.393738,393.984558 
	C641.039062,403.308472 640.028992,412.631073 640.602539,421.993713 
	C641.114868,430.356934 642.500000,438.666656 643.500000,447.000000 
"/>
<path fill="none" opacity="1.000000" stroke="#000000" stroke-linecap="round" stroke-linejoin="round" stroke-width="5.000000"
	d="
M592.000000,471.000000 
	C594.942993,475.027283 594.818848,480.134430 596.907654,484.543732 
	C606.884949,505.604797 621.516113,520.840820 645.497192,525.016113 
	C652.516663,526.238220 659.687195,526.545959 666.531067,528.910034 
	C668.995667,529.761475 671.565735,528.328552 674.000000,527.500000 
"/>
<path fill="none" opacity="1.000000" stroke="#000000" stroke-linecap="round" stroke-linejoin="round" stroke-width="7.000000"
	d="
M979.500000,470.500000 
	C980.979675,470.353668 981.602600,470.979523 981.513672,472.500793 
	C981.123474,479.176239 980.546021,485.877441 979.739319,492.468079 
	C979.045349,498.137543 978.744690,503.860107 978.183289,509.518188 
	C976.650635,524.965332 976.057983,540.504028 974.982422,555.998779 
	C974.067993,569.171387 973.335266,582.369751 971.909058,595.490112 
	C970.370605,609.643372 970.317017,623.918823 968.064636,638.010315 
	C967.372681,642.339539 968.173218,646.615112 971.007996,650.243774 
	C971.111572,650.376343 971.377563,650.523376 971.490295,650.476624 
	C971.691467,650.393127 971.833374,650.166687 972.000061,650.000061 
"/>
<path fill="none" opacity="1.000000" stroke="#000000" stroke-linecap="round" stroke-linejoin="round" stroke-width="4.000000"
	d="
M937.500000,693.000000 
	C940.162231,698.945679 937.702515,704.601746 935.883545,709.960449 
	C929.428162,728.978760 916.123291,741.181519 896.983643,746.945740 
	C891.264771,748.668152 885.646240,750.782043 879.511719,751.180664 
	C877.173645,751.332520 875.382446,751.038818 873.500000,750.000000 
"/>
<path fill="none" opacity="1.000000" stroke="#000000" stroke-linecap="round" stroke-linejoin="round" stroke-width="4.000000"
	d="
M900.500000,605.500000 
	C900.069458,618.712097 903.802856,631.278564 906.515930,643.996582 
	C909.226074,656.700439 912.057495,669.382874 911.474548,682.498840 
	C911.363037,685.009033 911.804565,687.315674 913.000000,689.500000 
"/>
<path fill="none" opacity="1.000000" stroke="#000000" stroke-linecap="round" stroke-linejoin="round" stroke-width="5.000000"
	d="
M1062.000000,503.500000 
	C1064.253662,508.672455 1062.036255,513.842285 1060.757935,518.432617 
	C1055.305054,538.013428 1045.633789,555.011658 1028.049683,566.575623 
	C1024.538452,568.884827 1021.639099,572.136658 1018.508911,575.009705 
	C1016.081543,577.237549 1013.315857,578.367065 1010.000000,578.000000 
"/>
<path fill="none" opacity="1.000000" stroke="#000000" stroke-linecap="round" stroke-linejoin="round" stroke-width="5.000000"
	d="
M595.000000,474.500000 
	C600.500000,476.666656 605.935852,479.018280 611.515930,480.954010 
	C618.784058,483.475311 626.268127,485.392761 633.476807,488.062592 
	C644.996399,492.329102 653.491821,500.632141 660.939453,510.047913 
	C662.746826,512.332947 664.638489,514.003662 667.500000,514.500000 
"/>
<path fill="none" opacity="1.000000" stroke="#000000" stroke-linecap="round" stroke-linejoin="round" stroke-width="5.000000"
	d="
M653.000000,337.000000 
	C651.923096,336.743591 651.354065,336.042206 650.985107,335.005310 
	C646.665588,322.865082 644.114014,310.339722 645.651123,297.518127 
	C646.972351,286.496979 651.395508,276.337128 657.516541,267.010864 
	C657.841370,266.515991 658.405823,266.178436 659.171814,265.483673 
	C661.164917,268.611694 661.507507,271.741699 662.101196,274.981445 
	C664.907898,290.297638 664.600159,305.652435 662.865479,320.984772 
	C662.388916,325.197052 661.306152,329.477386 659.595947,333.540405 
	C658.616394,335.867645 657.553040,337.553040 655.000000,338.000000 
"/>
<path fill="none" opacity="1.000000" stroke="#000000" stroke-linecap="round" stroke-linejoin="round" stroke-width="5.000000"
	d="
M1040.500000,536.500000 
	C1033.225708,543.936951 1027.760986,552.779541 1021.560791,561.045593 
	C1019.910156,563.246094 1018.583923,564.904541 1015.562683,565.729492 
	C1012.275696,566.627014 1009.297424,569.246277 1009.524841,573.498657 
	C1009.716614,577.086243 1008.898804,580.137634 1006.554810,583.044189 
	C1000.597290,590.431580 997.933838,599.566711 994.090454,608.041016 
	C989.388550,618.408081 983.630371,628.179688 977.834290,637.901184 
	C975.493286,641.827454 973.971741,645.985840 972.000000,650.000000 
"/>
<path fill="none" opacity="1.000000" stroke="#000000" stroke-linecap="round" stroke-linejoin="round" stroke-width="5.000000"
	d="
M587.500000,375.500000 
	C586.430176,378.720398 587.494629,380.490570 590.364014,382.678345 
	C595.193665,386.360718 598.952148,391.409943 603.539734,395.454926 
	C617.969727,408.178070 627.903564,424.128082 636.365234,441.067322 
	C638.168152,444.676422 640.963989,446.240997 644.455383,447.964722 
	C648.784851,445.131989 650.728516,441.661285 649.705688,435.466034 
	C646.918335,418.583954 654.290100,404.512512 664.072571,391.554810 
	C666.746704,388.012695 669.114075,383.995819 673.479004,381.955048 
	C675.210632,381.145416 674.444458,378.827179 675.500000,377.500000 
"/>
<path fill="none" opacity="1.000000" stroke="#000000" stroke-linecap="round" stroke-linejoin="round" stroke-width="5.000000"
	d="
M990.500000,489.500000 
	C992.457825,494.695343 989.163574,499.217377 988.290710,503.961487 
	C985.733154,517.861328 988.170837,530.969177 994.817627,542.821899 
	C998.089539,548.656555 999.776245,555.743591 1005.803711,560.261841 
	C1007.556885,561.575928 1006.245850,566.285767 1009.000000,568.500000 
"/>
<path fill="none" opacity="1.000000" stroke="#000000" stroke-linecap="round" stroke-linejoin="round" stroke-width="6.000000"
	d="
M1018.500000,424.500000 
	C1019.437744,427.991974 1017.927612,430.483215 1016.315369,433.660065 
	C1013.654053,438.904022 1012.111145,445.105469 1011.704468,451.014069 
	C1011.065002,460.305115 1010.685608,469.734467 1014.402344,478.790070 
	C1016.252747,483.298309 1016.527771,488.476410 1020.500000,492.000000 
"/>
<path fill="none" opacity="1.000000" stroke="#000000" stroke-linecap="round" stroke-linejoin="round" stroke-width="6.000000"
	d="
M1019.500000,431.000000 
	C1024.215454,435.685822 1024.980225,442.167297 1026.315186,448.041992 
	C1029.387817,461.562897 1028.199585,475.155579 1022.781006,487.906921 
	C1020.890137,492.356537 1020.220276,496.551361 1020.573181,500.994171 
	C1021.385864,511.224365 1020.347107,521.353394 1019.463501,531.496826 
	C1019.200378,534.517456 1018.627014,537.528320 1017.966125,540.492432 
	C1017.240295,543.747314 1017.106018,546.897949 1018.500000,550.000000 
"/>
<path fill="none" opacity="1.000000" stroke="#000000" stroke-linecap="round" stroke-linejoin="round" stroke-width="5.000000"
	d="
M749.500000,257.500000 
	C747.242554,265.840637 743.723389,273.503754 738.567078,280.549103 
	C730.402832,291.704132 719.203857,298.093292 706.523071,302.565460 
	C704.081421,303.426575 702.158630,302.271454 700.000000,302.000000 
"/>
<path fill="none" opacity="1.000000" stroke="#000000" stroke-linecap="round" stroke-linejoin="round" stroke-width="5.000000"
	d="
M991.500000,495.500000 
	C1001.883545,507.033844 1006.747742,520.918762 1009.074158,535.988525 
	C1009.774414,540.525024 1010.205750,544.953064 1009.542480,549.506165 
	C1009.303528,551.147095 1009.564270,552.865479 1007.500000,553.500000 
"/>
<path fill="none" opacity="1.000000" stroke="#000000" stroke-linecap="round" stroke-linejoin="round" stroke-width="5.000000"
	d="
M676.500000,384.500000 
	C674.098389,385.120239 674.990234,387.110260 675.048767,388.497925 
	C675.845154,407.351898 667.634583,422.606201 655.974976,436.478973 
	C654.706177,437.988617 653.454773,439.813477 651.000000,439.500000 
"/>
<path fill="none" opacity="1.000000" stroke="#000000" stroke-linecap="round" stroke-linejoin="round" stroke-width="5.000000"
	d="
M1065.500000,500.500000 
	C1047.862305,508.862305 1035.470581,522.463196 1026.488037,539.493713 
	C1024.468994,543.321960 1022.258179,546.869873 1019.247437,550.222229 
	C1015.846313,554.009460 1013.815979,559.344788 1014.500000,565.000000 
"/>
<path fill="none" opacity="1.000000" stroke="#000000" stroke-linecap="round" stroke-linejoin="round" stroke-width="4.000000"
	d="
M1032.500000,635.500000 
	C1017.049500,636.945251 1002.209839,641.016174 988.086182,647.196960 
	C982.870056,649.479736 977.652222,648.925415 972.500000,650.000000 
"/>
<path fill="none" opacity="1.000000" stroke="#000000" stroke-linecap="round" stroke-linejoin="round" stroke-width="5.000000"
	d="
M747.500000,260.500000 
	C742.602051,259.569611 738.703369,262.766327 734.584473,264.236603 
	C721.664978,268.848328 711.534363,277.508484 704.092957,289.059906 
	C702.884155,290.936279 701.275696,293.372711 703.000000,296.000000 
"/>
<path fill="none" opacity="1.000000" stroke="#000000" stroke-linecap="round" stroke-linejoin="round" stroke-width="7.000000"
	d="
M777.500000,257.000000 
	C776.853149,274.174561 776.295105,291.348267 778.000000,308.500000 
"/>
<path fill="none" opacity="1.000000" stroke="#000000" stroke-linecap="round" stroke-linejoin="round" stroke-width="5.000000"
	d="
M724.500000,280.500000 
	C719.192871,284.492523 713.650757,288.213348 709.043274,293.041321 
	C707.707336,294.441223 706.156372,295.757294 704.491333,295.861359 
	C702.141785,296.008179 700.992126,297.700226 700.640625,299.036987 
	C699.478577,303.456268 696.060486,306.009857 692.920837,308.395813 
	C681.141968,317.346832 671.478882,328.120026 663.489014,340.492920 
	C661.803345,343.103333 660.299255,346.032349 656.500000,346.000000 
"/>
<path fill="none" opacity="1.000000" stroke="#000000" stroke-linecap="round" stroke-linejoin="round" stroke-width="6.000000"
	d="
M889.000000,256.500000 
	C889.166626,267.666656 889.532349,278.835327 889.421387,289.999207 
	C889.360046,296.170227 888.500000,302.333344 888.000000,308.500000 
"/>
<path fill="none" opacity="1.000000" stroke="#000000" stroke-linecap="round" stroke-linejoin="round" stroke-width="5.000000"
	d="
M644.000000,448.500000 
	C642.938049,453.013550 644.303772,457.135040 645.137695,461.568146 
	C646.375061,468.146057 649.976807,473.009888 652.728271,478.632965 
	C656.584106,486.512878 659.597595,494.826294 663.958313,502.523621 
	C666.217224,506.510895 668.237488,510.618835 668.052795,515.502014 
	C667.869873,520.339233 672.159607,523.124451 674.257507,526.855225 
	C676.847229,531.460754 681.559143,534.826294 684.855042,539.111511 
	C685.779175,540.313049 687.095093,539.285950 687.500000,540.500000 
"/>
<path fill="none" opacity="1.000000" stroke="#000000" stroke-linecap="round" stroke-linejoin="round" stroke-width="5.000000"
	d="
M863.000000,310.000000 
	C863.913086,315.844879 859.107971,317.110626 855.451111,318.356415 
	C848.571777,320.699951 841.362793,321.323273 833.996521,321.138336 
	C828.130554,320.991119 822.322693,320.560730 816.497864,320.023499 
	C812.548035,319.659241 809.146545,317.682648 805.542786,316.381500 
	C802.983154,315.457367 802.561401,312.492584 802.000000,310.000000 
"/>
<path fill="none" opacity="1.000000" stroke="#000000" stroke-linecap="round" stroke-linejoin="round" stroke-width="3.000000"
	d="
M634.500000,504.500000 
	C642.720398,507.339722 650.530151,511.121155 657.938599,515.601501 
	C661.200867,517.574402 664.376587,518.326965 668.000000,518.000000 
"/>
<path fill="none" opacity="1.000000" stroke="#000000" stroke-linecap="round" stroke-linejoin="round" stroke-width="3.000000"
	d="
M614.500000,426.500000 
	C620.942749,433.295990 626.964966,440.466797 632.417419,448.059326 
	C635.054504,451.731445 637.972290,453.722046 642.500000,453.000000 
"/>
<path fill="none" opacity="1.000000" stroke="#000000" stroke-linecap="round" stroke-linejoin="round" stroke-width="6.000000"
	d="
M801.500000,807.500000 
	C801.875610,810.230042 799.834778,809.511780 798.500793,809.473389 
	C787.333740,809.152344 776.120056,810.409973 764.997070,808.517151 
	C764.686951,808.464355 764.333313,808.666687 764.000000,808.750000 
"/>
<path fill="none" opacity="1.000000" stroke="#000000" stroke-linecap="round" stroke-linejoin="round" stroke-width="3.000000"
	d="
M998.500000,530.500000 
	C1001.069641,535.580200 1003.011353,540.832764 1004.134399,546.473267 
	C1004.650513,549.065735 1004.718018,552.016052 1007.369141,554.161682 
	C1008.687073,555.228333 1008.612000,557.990051 1006.500000,559.500000 
"/>
<path fill="none" opacity="1.000000" stroke="#000000" stroke-linecap="round" stroke-linejoin="round" stroke-width="3.000000"
	d="
M661.500000,411.500000 
	C658.833313,417.333313 656.075928,423.127869 653.554016,429.023132 
	C652.772888,430.848969 652.038086,432.429169 650.000000,433.000000 
"/>
<path fill="none" opacity="1.000000" stroke="#000000" stroke-linecap="round" stroke-linejoin="round" stroke-width="3.000000"
	d="
M835.500000,328.500000 
	C837.261719,335.833344 833.747375,343.166656 835.500000,350.500000 
"/>
<path fill="none" opacity="1.000000" stroke="#000000" stroke-linecap="round" stroke-linejoin="round" stroke-width="3.000000"
	d="
M866.000000,754.500000 
	C865.570740,756.368713 866.014709,758.674011 863.500000,759.500000 
"/>
</svg>